<svg width="349" height="21" viewBox="0 0 349 21" fill="none" xmlns="http://www.w3.org/2000/svg">
<path d="M16.3401 11.5249C16.6966 11.6215 17.2314 11.6215 17.7663 11.5249C19.3707 11.235 20.9752 11.3316 22.5797 11.3316C23.6493 11.3316 24.719 11.235 25.6103 10.945C26.3234 10.7517 26.8583 10.6551 27.3931 11.1383C27.3931 11.1383 27.7496 11.235 27.9279 11.1383C29.3541 10.8484 30.9586 10.945 32.563 10.945C33.2761 10.945 33.811 10.7517 34.1675 10.3652C34.1675 10.2685 34.524 10.0752 34.7023 10.2685C35.0589 10.6551 35.772 10.7517 36.4851 10.6551C37.9113 10.4618 39.5157 10.5584 40.9419 10.5584C41.4767 10.5584 41.8333 10.4618 42.1898 10.2685C42.3681 10.0752 42.5464 9.88193 42.7247 9.88193L43.4378 10.1719C43.9726 10.4618 44.3291 10.7517 45.0422 10.1719C46.2902 10.6551 47.7164 9.97857 49.1426 10.2685C49.6774 10.3652 50.2122 10.1719 50.5687 10.1719C52.1732 10.1719 53.5994 9.88194 55.2039 9.97858C56.8083 10.0752 58.4128 10.0752 60.0173 9.78528C60.5521 9.78528 61.0869 9.68864 61.4435 9.78528C62.3349 9.97857 63.048 9.88193 63.761 9.68864C65.009 9.39871 66.2569 9.30206 67.6831 9.39871C68.931 9.49535 70.1789 9.39871 71.4268 9.49536C72.6748 9.592 74.101 9.30206 75.3489 9.30206C76.7751 9.30206 78.2013 9.10877 79.6275 9.10877C80.5188 9.10877 81.5885 9.20542 82.4799 9.01213C83.5495 8.81884 84.4409 9.20542 85.5105 9.10877C85.8671 9.01213 86.2236 9.10878 86.4019 9.01213C87.115 8.81884 88.0064 9.01213 88.7195 9.01213C89.4326 9.01213 90.1457 8.81884 91.037 8.91548C91.9284 9.01213 92.8198 8.7222 93.7111 8.7222H96.9201C97.8114 8.7222 98.7028 8.43226 99.5942 8.62555C100.486 8.43226 101.377 8.5289 102.447 8.43226C103.873 8.33562 105.299 8.5289 106.725 8.33561C108.151 8.14232 109.399 8.14232 110.647 8.33561C111.36 8.43226 112.073 8.43226 112.608 8.33561C113.321 8.23897 114.034 8.14232 114.748 8.14232C116.709 8.14232 118.67 7.94903 120.631 8.04567C121.165 8.14232 121.7 8.14232 122.235 8.04567C123.483 7.85238 124.909 8.04568 126.157 7.85239C127.405 7.6591 128.831 7.85239 130.257 7.75575C131.327 7.6591 132.218 7.6591 133.288 7.6591C133.645 7.36917 134.001 7.46581 134.536 7.46581C135.784 7.46581 137.032 7.6591 138.28 7.36916C138.636 7.27252 138.993 7.27252 139.349 7.36916C140.776 7.56245 142.202 7.6591 143.628 7.36916C144.163 7.27252 144.519 7.27253 145.054 7.27253C146.48 7.27253 147.907 7.36916 149.333 7.07923C150.759 6.78929 152.185 7.36917 153.611 7.17588H153.968C156.285 6.88594 158.603 7.07923 161.099 6.88594C164.486 6.596 167.873 6.78929 171.26 6.596C173.222 6.49936 175.004 6.69265 176.787 6.40272C177.678 6.59601 178.213 6.20942 178.926 6.11278C179.818 6.11278 180.709 6.30608 181.6 6.30608C183.74 6.30608 186.057 6.30608 188.197 6.01614C189.444 5.82285 190.692 5.7262 192.119 5.91949C193.01 6.01614 194.258 6.11278 195.328 5.82284C195.506 5.7262 195.862 5.7262 196.041 5.7262C196.932 6.01614 198.002 5.82284 198.893 5.82284C200.141 5.82284 201.567 5.53292 202.815 5.53292C204.241 5.53292 205.489 5.33962 206.915 5.62956C207.272 5.62956 207.807 5.62956 208.342 5.53292C209.768 5.24298 211.194 5.33962 212.62 5.33962C213.512 5.33962 214.403 5.14634 215.473 5.24298C216.364 5.33963 217.255 5.24298 218.325 5.14633C219.573 5.04969 220.821 5.04969 222.069 4.95304C223.317 4.8564 224.565 4.8564 225.991 4.8564C226.882 4.75975 227.773 4.66311 228.843 4.66311C231.339 4.66311 233.835 4.56647 236.331 4.56647C237.044 4.56647 237.757 4.37317 238.292 4.37317C239.54 4.66311 240.787 4.27653 242.035 4.27653C243.283 4.27653 244.71 4.37317 245.957 4.17988C246.671 4.08324 247.384 3.9866 248.275 3.9866C249.166 3.9866 250.236 4.08324 251.127 3.9866C252.197 3.88995 253.267 4.17989 254.158 3.9866C254.693 3.88995 255.228 3.98659 255.584 3.88995C256.119 3.88995 256.654 3.79331 257.01 3.79331C258.971 3.79331 260.754 3.7933 262.537 3.60001C263.607 3.50337 264.676 3.50337 265.924 3.60001C266.816 3.69666 268.063 3.7933 268.955 3.40672C270.024 3.11679 271.094 3.40672 271.986 3.11679C273.055 3.60001 274.481 3.31008 275.729 3.40672C277.512 3.50337 279.295 3.50338 281.077 3.31009C282.682 3.1168 284.108 3.21343 285.713 3.11679C288.743 2.9235 291.952 3.50338 294.626 2.82686C294.983 2.73022 295.339 2.73022 295.518 2.82686C296.587 3.1168 297.657 2.9235 298.905 2.9235C299.796 2.9235 300.688 2.73022 301.757 2.82686C303.718 2.82686 305.679 2.63357 307.819 2.73021C309.78 2.82686 311.919 2.44028 314.058 2.73021C314.771 2.82686 315.306 2.63356 316.019 2.63356C317.98 2.44028 319.763 2.34363 321.724 2.44028C323.329 2.53692 324.933 2.53692 326.537 2.24699C327.072 2.15035 327.785 2.15035 328.32 2.24699C328.677 2.24699 329.033 2.34364 329.39 2.24699C330.994 2.0537 332.421 2.15034 334.025 2.15034C334.738 2.15034 335.451 2.24699 335.986 2.15034C336.877 1.95705 337.59 1.76377 338.304 1.76377C339.017 1.76377 339.73 2.0537 340.443 2.0537H340.978C342.582 1.76377 344.008 1.86042 345.613 1.86042C346.148 1.86042 346.682 1.86041 347.039 1.57048C347.396 1.28054 347.93 1.47383 348.465 1.47383C348.643 1.47383 348.822 1.37718 348.822 1.37718C348.643 1.08725 349 0.893966 349 0.604032C349 0.410742 348.822 0.217453 348.465 0.120808C348.109 0.120808 347.93 0.0241588 347.574 0.0241588C346.148 0.217448 344.721 -0.0724862 343.295 0.0241588H339.017H329.568C328.677 0.0241588 327.607 -0.0724812 326.894 0.120808C325.646 0.410743 324.755 0.0241588 323.685 0.0241588H322.794C321.367 0.314092 319.763 0.31409 318.337 0.217446C317.267 0.120801 316.732 0.41074 316.376 0.797319C315.128 0.60403 314.058 0.217451 312.632 0.314095H308.71C307.462 0.314095 306.036 0.314088 304.788 0.410733C303.54 0.507378 302.114 0.217452 300.866 0.604032C300.688 0.604032 300.331 0.604028 300.153 0.507383C299.44 0.410737 299.083 0.410733 298.37 0.410733C295.339 0.700668 292.487 0.604032 289.456 0.604032C288.208 0.604032 286.961 0.60403 285.713 0.797319C285 0.893964 284.286 0.990609 283.395 0.797319C283.217 0.700674 282.86 0.70067 282.682 0.70067C281.434 0.990605 280.186 0.89396 278.938 0.70067C278.225 0.70067 277.512 0.60403 276.977 0.797319C275.908 0.990609 274.66 0.797316 273.59 0.990606C272.342 1.1839 271.272 0.990606 270.203 0.990606C265.033 0.990606 259.863 1.28054 254.871 1.28054H252.197C251.84 1.28054 251.306 1.28054 250.771 1.37718C249.879 1.57047 248.988 1.57047 247.918 1.47383C247.562 1.37718 247.205 1.37718 246.849 1.47383C245.601 1.76376 244.175 1.66712 242.927 1.57048C240.966 1.37719 239.183 1.86041 237.4 1.66712C237.044 1.57047 236.687 1.76377 236.331 1.76377C235.796 1.86041 235.083 1.86042 234.548 1.86042C232.409 1.86042 230.269 1.76376 228.308 2.15034C227.773 2.24699 227.239 2.15034 226.882 2.15034C224.565 2.15034 222.425 2.24699 220.286 2.34364C218.147 2.44028 216.186 2.53693 214.225 2.53693C212.62 2.53693 211.016 2.53692 209.589 2.9235C209.233 3.02015 209.055 2.92351 208.876 2.82686C208.52 2.63357 208.342 2.63357 207.807 2.73021C206.202 2.82686 204.598 2.9235 202.993 2.9235C202.28 2.9235 201.389 2.92351 200.676 3.02015C200.141 3.1168 199.606 3.11679 199.071 3.11679C196.575 3.11679 194.08 3.21344 191.584 3.21344H190.336C189.266 3.50337 188.018 3.40673 186.949 3.50337C185.344 3.60002 183.918 3.31008 182.314 3.60001C181.066 3.7933 179.818 3.79331 178.57 3.79331C177.322 3.79331 176.252 4.08324 175.004 3.79331L173.756 3.88995C173.222 4.08324 172.508 4.08325 171.795 4.08325C170.726 4.08325 169.478 4.08324 168.408 4.17988C167.16 4.27653 166.091 3.98659 165.021 4.17988H164.13C162.882 4.37317 161.634 4.37317 160.386 4.37317C158.96 4.37317 157.712 4.75976 156.285 4.46982L155.572 4.56647C154.324 4.75976 153.077 4.75976 151.829 4.75976C150.759 4.75976 149.689 4.8564 148.62 4.75976C147.372 4.66311 146.124 5.04969 144.876 4.95304C142.737 4.75975 140.776 4.95304 138.636 5.14633C138.458 5.24298 138.28 5.14633 138.101 5.14633C136.854 5.14633 135.427 5.24298 134.179 5.24298C132.753 5.24298 131.505 5.14633 130.257 5.43627C129.901 5.53291 129.723 5.53291 129.366 5.43627C128.653 5.24298 127.94 5.33962 127.048 5.43627C126.335 5.53291 125.622 5.43627 124.909 5.43627C120.809 5.43627 116.709 5.91949 112.786 5.91949C111.182 5.91949 109.399 6.01614 107.795 6.01614C106.369 6.01614 104.764 6.01614 103.338 6.20943C101.733 6.40272 100.307 6.69265 98.5246 6.40272C98.5246 6.30607 98.168 6.40272 97.9897 6.49937C97.4549 6.59601 96.9201 6.49936 96.3853 6.596C95.1373 6.78929 93.8894 6.59601 92.6415 6.69265C91.7501 6.7893 90.6805 6.596 89.9674 7.07923C88.8977 6.98258 87.8281 6.88594 86.9367 6.88594C86.7584 6.88594 86.5802 6.88594 86.5802 6.98259C85.6888 7.07923 84.7974 6.98259 83.7278 6.98259C82.4799 6.98259 81.2319 6.7893 80.1623 7.27253C79.984 7.46582 79.6275 7.36916 79.2709 7.36916C78.5578 7.17587 77.8447 7.17588 77.1316 7.27253C75.8837 7.46582 74.8141 7.36916 73.5661 7.36916C72.4965 7.36916 71.4268 7.46582 70.3572 7.75575C69.4658 7.46582 68.5745 7.85239 67.6831 7.85239C66.7917 7.85239 65.9003 7.75575 65.1872 7.94904C64.8307 8.04568 64.6524 8.04568 64.2959 7.94904C63.9393 7.75575 63.5828 7.6591 63.048 7.75575C61.2652 8.04568 59.3042 8.14232 57.3432 8.14232C56.6301 8.14232 55.7387 8.14233 55.0256 8.23897C53.5994 8.43226 52.1732 8.5289 50.747 8.33561C50.3905 8.23897 50.0339 8.23897 49.6774 8.43226C48.9643 8.81884 48.0729 8.43226 47.5381 8.91548C47.1815 9.10877 46.6467 9.10877 46.1119 9.10877C44.6857 8.91548 43.4378 8.7222 42.0116 9.01213C40.0506 8.62555 38.2678 9.01213 36.6633 9.20542C35.9502 9.30206 35.4154 9.39871 34.8806 9.20542C34.524 9.10878 34.1675 9.10877 33.811 9.30206C33.0979 9.68864 32.7413 9.78528 32.0282 9.30206C32.0282 9.20541 31.4934 9.20541 31.3151 9.30206C31.1368 9.59199 30.7803 9.78528 30.9586 10.0752C31.1368 10.1719 31.1368 10.2685 30.7803 10.2685C30.602 10.2685 30.4237 10.2685 30.4237 10.1719C30.0672 10.0752 30.0672 9.88193 29.7106 9.68864C29.5324 9.592 29.1758 9.49536 28.9975 9.49536C28.1062 9.49536 27.2148 9.3987 26.5017 9.59199C25.7886 9.78528 25.4321 9.88193 24.719 9.78528C23.6493 9.78528 22.5797 9.68864 21.51 9.88193C20.4404 10.0752 19.549 9.97858 18.4794 9.88193C17.4097 9.78529 16.3401 9.68864 15.4487 10.1719C15.2704 10.2685 14.9139 10.2685 14.7356 10.2685C13.4877 10.2685 12.2398 10.4618 10.9918 10.4618C10.6353 10.4618 10.6353 10.6551 10.8136 10.7517C11.1701 10.945 10.9918 11.3316 11.7049 11.1383C13.3094 11.4282 14.9139 11.1383 16.3401 11.5249ZM72.6748 17.1303C73.2096 17.1303 73.5661 16.937 74.101 17.0336C75.7054 17.0336 76.7751 16.6471 77.4882 15.7773C77.8447 16.1638 78.2013 16.5504 78.9144 16.5504C79.6275 16.5504 80.5188 16.6471 81.2319 16.4538C81.5885 16.3571 81.7668 16.2605 81.5885 15.9706C81.4102 15.8739 81.5885 15.7773 81.7668 15.7773C82.3016 15.7773 82.6581 15.9706 83.1929 15.9706C85.154 15.9706 86.9367 16.0672 88.8977 15.8739C90.5022 15.6806 92.1067 15.4873 93.7111 15.3907C96.3853 15.1974 99.0594 15.0041 101.555 14.7142C103.16 14.5209 104.586 14.4242 106.19 14.4242C106.725 14.4242 107.438 14.4242 107.973 14.3276C110.647 13.8444 113.678 14.1343 116.53 13.5544C117.422 13.3611 118.313 13.3611 119.383 13.3611C120.096 13.3611 120.987 13.5544 121.878 13.2645C124.018 13.3611 125.979 12.8779 128.118 12.8779C129.188 12.4913 130.257 12.9746 131.149 12.7813C131.862 12.588 132.575 12.588 133.11 12.588C134.714 12.588 136.319 12.4913 137.745 12.298C138.101 12.2014 138.458 12.1048 138.815 12.1048C141.31 12.3947 143.806 11.8148 146.302 11.8148C146.48 11.8148 146.659 11.7182 146.837 11.7182C147.015 11.6215 147.015 11.4282 147.372 11.5249C148.085 11.7182 148.62 11.4282 149.333 11.5249C151.115 11.7182 152.72 11.6215 154.503 11.3316C156.285 11.0417 158.246 11.0417 160.207 11.0417C161.455 11.0417 162.703 11.0417 163.951 10.7517H164.664C166.091 11.0417 167.16 10.945 168.586 10.4618C169.121 10.2685 169.656 10.6551 170.191 10.5584C171.082 10.3652 172.152 10.3652 173.043 10.3652C173.222 10.3652 173.578 10.1719 173.756 10.0752C174.113 9.88193 174.113 9.97857 174.291 10.0752C174.648 10.2685 174.648 10.3652 175.004 10.2685C176.252 10.2685 177.5 10.1719 178.57 9.59199C178.748 9.49535 179.105 9.49535 179.283 9.59199C179.639 9.78528 179.639 9.88193 180.174 9.88193C181.422 9.88193 182.848 9.97858 184.096 9.88193C184.988 9.78529 185.522 9.78528 186.236 9.59199C187.305 9.78528 188.553 9.592 189.623 9.39871C189.979 9.39871 190.514 9.39871 191.049 9.49536C191.584 9.68865 192.119 9.592 192.653 9.39871C193.01 9.30206 193.367 9.10878 193.901 9.20542C195.328 9.49535 196.932 9.3987 198.358 9.30206C200.141 9.20541 202.102 9.20541 203.885 8.81883C205.311 8.5289 206.559 8.43226 207.807 8.62555C209.055 8.81884 210.124 8.81884 211.372 8.62555C213.333 8.33561 215.294 8.43226 217.255 8.33561C218.86 8.23897 220.464 8.23896 222.069 8.04567C222.604 8.04567 223.138 7.94903 223.673 8.04567C225.099 8.33561 226.347 8.23897 227.773 7.94904C228.13 7.94904 228.665 7.85239 228.843 7.94904C229.913 8.23897 230.982 7.85239 231.874 7.85239C234.191 7.85239 236.509 7.85239 238.826 7.6591C240.074 7.56246 241.322 7.56245 242.57 7.56245C243.462 7.46581 244.353 7.36916 245.244 7.36916C246.136 7.36916 247.205 7.56246 248.097 7.46581C249.345 7.36917 250.771 7.27253 252.019 7.27253C254.158 7.27253 256.119 7.27252 258.08 7.07923C259.863 6.88594 261.467 6.98258 263.072 6.88594C264.498 6.78929 266.102 6.88595 267.707 6.7893C268.242 6.69266 268.955 6.69266 269.668 6.7893C270.203 6.88595 270.916 6.88594 271.629 6.69265C272.342 6.49936 273.768 6.40272 274.125 6.49937C275.194 6.7893 276.264 6.69265 277.512 6.596C278.403 6.49936 279.295 6.49937 280.364 6.7893C280.721 6.88595 281.434 6.69266 281.612 6.30608L281.434 5.91949C281.434 5.82285 281.434 5.82285 281.612 5.7262H281.791C282.504 6.11278 283.039 6.49936 282.682 7.07923C282.504 7.36916 282.504 7.46581 283.039 7.56245C284.643 7.56245 286.069 7.56246 287.317 7.17588C287.674 6.98259 288.208 6.98258 288.743 6.88594C288.922 6.78929 289.278 6.69266 288.922 6.49937C288.743 6.40272 288.743 6.20942 288.387 6.11278C287.317 5.62956 286.247 5.14633 284.643 5.14633C283.395 5.14633 282.147 5.14634 280.899 5.04969C279.473 4.95305 278.225 4.95304 276.977 4.95304C274.838 4.95304 272.699 5.04969 270.559 5.04969C270.203 5.04969 269.668 5.04969 269.311 4.95304C268.242 4.66311 266.816 4.75976 265.746 4.75976C263.607 4.75976 261.646 4.8564 259.685 4.95304C257.545 5.04969 255.406 4.95305 253.267 5.04969C250.593 5.14634 247.74 4.95304 244.888 5.14633L240.609 5.43627C239.183 5.53291 237.757 5.43627 236.331 5.43627C235.796 5.43627 235.261 5.33962 234.726 5.43627C233.122 5.7262 231.517 5.62956 230.091 5.7262C227.773 5.91949 225.634 5.82285 223.495 5.91949C221.89 6.01614 220.286 5.82285 218.86 6.20943C218.503 6.30607 217.968 6.30607 217.79 6.20943C216.542 6.01614 215.473 6.11279 214.225 6.30608C213.512 6.40272 212.798 6.40272 212.085 6.40272C211.551 6.40272 211.372 6.7893 210.837 6.69265C209.589 6.49936 208.342 6.69265 207.094 6.69265C205.846 6.69265 204.776 6.78929 203.528 6.88594C202.102 6.98258 200.854 7.36917 199.606 6.98259C198.536 7.07923 197.645 6.88594 196.754 7.07923C195.506 7.17587 194.258 7.27253 193.01 7.27253C190.158 7.27253 187.483 7.56245 184.631 7.56245C184.453 7.56245 184.275 7.56246 184.096 7.6591C182.67 7.94903 181.244 7.85239 179.818 7.85239C178.748 7.85239 177.857 7.94903 176.965 8.33561L176.252 8.43226C175.004 8.04568 173.578 8.23897 172.33 8.43226C172.152 8.5289 171.795 8.5289 171.439 8.43226C170.191 8.33562 169.121 8.5289 167.873 8.62555C166.625 8.72219 165.377 8.81883 164.13 8.81883C163.238 8.81883 162.525 9.10877 161.634 8.91548C160.742 8.72219 159.673 9.10877 158.781 9.10877C157.533 9.10877 156.642 9.3987 155.394 9.30206C154.146 9.20541 152.898 9.39871 151.65 9.49536C150.402 9.592 149.154 9.88193 148.085 9.88193C146.659 9.88193 145.411 9.78529 143.985 9.88193C141.31 10.0752 138.458 10.3652 135.784 10.4618C133.11 10.5584 130.436 10.6551 127.762 11.0417C126.335 11.235 124.731 11.3316 123.305 11.3316C122.057 11.3316 120.809 11.3316 119.561 11.6215C118.848 11.8148 118.135 11.9115 117.6 11.8148C114.391 11.7182 111.539 12.2981 108.33 12.3947C107.082 12.6846 105.477 12.4913 104.051 12.6846C101.912 12.9746 99.7725 13.2645 97.6332 13.2645C96.7418 13.2645 96.0287 13.5544 95.1373 13.6511C94.246 13.7477 93.3546 13.4578 92.6415 13.6511C92.4632 13.6511 92.2849 13.7477 92.1067 13.7477C88.8977 13.7477 85.8671 14.3276 82.6581 14.7142C81.7668 14.8108 81.2319 15.0041 80.8754 15.3907C80.5188 15.6806 80.3406 15.584 79.984 15.3907C79.984 15.294 79.6275 15.1974 79.6275 15.1974C77.1316 15.584 74.6358 15.584 72.1399 15.8739C71.7834 15.8739 71.4268 16.2605 71.4268 16.6471C71.4268 16.8404 72.1399 17.1303 72.6748 17.1303ZM2.43467 12.0081C3.32604 11.9115 4.03914 11.9115 4.57396 11.9115C4.93051 11.8148 5.46533 11.6215 5.46533 11.5249C5.46533 11.235 5.10878 11.0417 4.57396 11.235C4.21741 11.235 4.03914 11.1383 3.68259 11.0417C2.61294 10.7517 1.36502 10.8484 0.295374 11.1383C-0.0611738 11.235 -0.0611738 11.4282 0.1171 11.5249C0.473649 11.7182 0.651924 11.8148 1.00847 11.9115C1.54329 12.0081 2.07812 11.9115 2.43467 12.0081ZM100.307 20.8994C101.199 20.6095 102.447 20.8028 103.338 20.3196C103.516 20.2229 103.695 20.2229 103.873 20.4162C104.229 20.8994 105.299 20.8028 105.834 20.6095C106.903 20.2229 108.151 20.7062 108.864 20.3196C110.112 19.6431 111.004 20.3196 112.073 20.1263C112.965 19.933 114.213 20.1263 115.104 19.7397C115.639 19.6431 115.995 19.6431 116.53 19.7397C118.135 20.0296 119.561 19.8363 120.987 19.4498C121.344 19.3531 121.7 19.2565 122.057 19.3531C122.77 19.5464 123.483 19.4498 124.196 19.4498C125.266 19.2565 126.514 19.1598 127.762 19.1598C128.118 19.1598 128.653 19.0632 129.009 18.9665C129.544 18.8699 130.257 18.8699 130.97 18.8699C131.684 18.8699 132.397 18.7733 133.288 18.7733C133.11 18.6766 133.11 18.6766 133.11 18.58C132.932 18.58 132.753 18.4833 132.575 18.3867C132.753 18.3867 132.932 18.29 133.11 18.29C133.645 18.29 134.179 18.3867 134.714 18.3867C137.032 18.3867 139.528 18.1934 141.845 18.1934C142.915 18.1934 143.806 18.1934 144.698 17.9034C145.054 17.8068 145.411 17.7102 145.767 17.8068C147.55 18.0001 149.154 17.8068 150.937 17.6135C153.077 17.4202 155.038 17.3236 157.177 17.2269C159.494 17.1303 161.455 16.7437 163.773 16.8404C164.664 16.4538 165.734 17.0336 166.625 16.7437C168.943 16.937 171.26 16.1638 173.578 16.5504C173.756 16.5504 174.113 16.5504 174.291 16.4538C175.361 16.2605 176.609 16.3571 177.857 16.2605C178.926 16.1638 179.996 16.2605 181.066 16.1639C182.314 16.0672 183.74 15.8739 185.166 15.8739C186.414 15.8739 187.662 15.584 189.088 15.6806C190.692 15.7773 192.475 15.7773 193.901 15.584C195.506 15.3907 196.932 15.4873 198.358 15.3907C199.606 15.294 200.854 15.294 202.102 15.1974C203.172 15.1007 204.42 15.0041 205.667 15.1008C207.807 15.294 209.768 15.0041 211.729 15.0041C211.907 15.0041 212.264 15.0041 212.62 14.9075C213.512 14.7142 214.403 14.7142 215.473 14.7142H218.86C220.286 14.7142 221.534 14.4242 222.782 14.3276C223.317 13.7477 223.495 14.2309 224.03 14.3276C224.386 14.4242 224.921 14.4242 225.278 14.4242C226.882 14.4242 228.487 14.3276 229.913 14.4242C231.339 14.5209 232.765 14.1343 234.191 14.1343C236.865 14.1343 239.718 14.0377 242.392 14.0377C242.749 14.0377 243.283 14.0377 243.818 13.941C244.353 13.8444 245.066 13.7477 245.779 13.941C246.136 14.0377 246.492 14.0377 246.849 13.941C247.74 13.7477 248.632 13.8444 249.345 13.8444C250.414 13.8444 251.662 13.8444 252.554 13.7477C253.623 13.6511 254.693 13.4578 255.763 13.7477C256.119 13.8444 256.476 13.7477 256.654 13.5544L258.437 13.3611C259.15 13.2645 259.685 13.5544 260.398 13.5544C261.646 13.5544 262.715 13.2645 263.785 13.5544H272.52C274.66 13.5544 276.977 13.5544 279.116 13.6511C280.899 13.7477 282.682 13.8444 284.286 13.7477C288.208 13.5544 292.131 13.8444 295.874 13.8444C296.587 13.8444 297.122 13.8444 297.657 13.941C298.727 14.1343 299.796 14.1343 300.866 14.1343H301.936C303.362 14.5209 304.966 14.4242 306.571 14.4242C307.284 14.5209 307.997 14.4242 308.532 14.5209C309.958 14.8108 311.206 14.7142 312.989 14.8108C312.454 14.4242 311.919 14.3276 311.919 13.941C311.741 13.6511 311.384 13.6511 311.028 13.7477C310.671 13.8444 309.958 13.8444 309.958 13.7477C309.958 13.0712 309.245 13.1679 308.71 13.1679C307.106 12.9746 305.679 12.9746 304.253 12.588H303.362C300.688 12.588 298.192 12.1048 295.518 12.2014C294.805 11.9115 294.092 12.2014 293.378 12.298C292.487 12.298 291.774 12.0081 290.704 12.1048C290.348 12.2014 289.991 12.0081 289.456 12.1048C289.1 12.1048 288.743 12.1048 288.565 12.0081C287.674 11.5249 286.426 11.8148 285.356 11.8148C284.643 11.8148 283.752 12.0081 283.039 12.1048C282.504 12.2014 282.147 12.1048 281.791 11.9115C281.612 11.8148 281.256 11.7182 281.077 11.7182C280.186 11.9115 279.116 12.0081 278.225 11.8148C277.69 11.7182 277.334 11.9115 277.155 12.2014C276.977 12.2981 276.977 12.4913 276.977 12.588C276.977 12.6846 276.799 12.7813 276.799 12.7813L276.264 12.588L275.908 12.298C275.551 11.6215 275.551 11.7182 274.481 11.7182C273.947 11.7182 273.412 11.8148 273.055 11.7182C271.986 11.6215 271.094 11.8148 270.203 11.8148C269.311 11.8148 268.242 11.7182 267.35 11.6215C266.281 11.5249 265.211 11.6215 264.141 11.7182C262.894 11.8148 261.824 11.5249 260.754 11.6215C258.793 11.8148 256.654 11.7182 254.693 11.7182C254.158 11.7182 253.445 11.6215 252.91 11.8148C252.197 12.1048 251.127 11.9115 250.058 11.9115H247.562C245.779 11.9115 244.175 12.0081 242.57 12.0081C240.787 12.0081 239.183 12.3947 237.4 12.0081C237.222 12.0081 236.865 12.0081 236.509 12.1048C235.796 12.2981 234.904 12.2014 234.013 12.2014C231.517 12.2014 229.021 12.2014 226.526 12.3947C225.099 12.4913 223.673 12.4913 222.247 12.588C219.751 12.7813 217.255 12.6846 214.938 12.6846C214.403 12.6846 213.69 12.6846 213.155 12.7813C212.264 12.9746 211.551 12.8779 210.659 12.8779C207.272 12.8779 204.063 13.2645 200.854 13.2645C200.497 13.2645 200.141 13.3612 199.784 13.4578C199.25 13.6511 198.893 13.6511 198.18 13.5544C197.467 13.4578 196.575 13.4578 195.684 13.5544C192.475 13.941 189.266 13.941 186.057 13.941C185.344 13.941 184.631 13.8444 183.918 14.1343C183.205 14.4242 182.67 14.5209 181.779 14.3276C181.066 14.1343 180.174 14.2309 179.461 14.2309C178.926 14.2309 178.391 14.4242 177.857 14.3276C176.787 14.3276 175.896 14.4242 175.004 14.5209C173.935 14.6175 172.865 14.3276 172.152 15.0041C172.152 15.0041 171.617 15.0041 171.26 14.9075C170.904 14.9075 170.369 14.7142 170.013 14.8108C168.052 14.9075 165.912 14.3276 164.308 15.1974C164.13 15.294 163.951 15.294 163.773 15.1974C163.06 15.1007 162.347 15.0041 161.812 15.1974C161.099 15.4873 160.386 15.1974 159.494 15.294C157.89 15.4873 156.107 15.6806 154.503 15.6806C151.115 15.6806 147.728 15.8739 144.519 16.3571C144.163 16.3571 143.806 16.4538 143.628 16.3571C142.38 16.2605 141.31 16.7437 140.241 16.4538C139.171 16.8404 137.923 16.7437 136.854 16.7437C136.497 16.7437 136.14 16.8404 135.784 17.0336C135.784 17.1303 135.427 17.1303 135.427 17.1303C133.466 16.937 131.505 17.1303 129.723 17.3236C127.227 17.6135 124.731 17.7102 122.235 18.0001C121.522 18.0967 120.809 17.8068 120.274 18.0967C119.739 18.3867 119.026 18.3867 118.313 18.29C117.243 18.0967 116.174 18.1934 115.104 18.3867C114.569 18.4833 114.213 18.58 113.678 18.58C112.608 18.58 111.717 18.8699 110.647 18.7733C109.399 18.6766 108.33 18.9665 107.26 19.0632C106.903 19.1598 106.547 19.1598 106.19 19.1598C105.121 19.1598 104.051 19.3531 102.981 19.3531C102.447 19.3531 101.733 19.4498 101.377 19.5464C100.664 19.7397 99.9507 19.5464 99.4159 19.6431C99.0594 19.7397 98.8811 19.933 98.8811 20.1263L99.4159 20.7062C99.5942 20.9961 99.9507 21.0927 100.307 20.8994Z" fill="#00D8D8"/>
</svg>
