<svg width="38" height="39" viewBox="0 0 38 39" fill="none" xmlns="http://www.w3.org/2000/svg">
<g filter="url(#filter0_dd_147_915)">
<g clip-path="url(#clip0_147_915)">
<rect x="3" y="2.51709" width="32" height="32" rx="8" fill="white"/>
<rect x="3" y="2.51709" width="32" height="32" rx="8" fill="url(#paint0_linear_147_915)"/>
<path fill-rule="evenodd" clip-rule="evenodd" d="M18.9998 4.55594C11.2892 4.55594 5.03861 10.8066 5.03861 18.5171C5.03861 26.2276 11.2892 32.4783 18.9998 32.4783C26.7103 32.4783 32.9609 26.2276 32.9609 18.5171C32.9609 10.8066 26.7103 4.55594 18.9998 4.55594ZM4.96094 18.5171C4.96094 10.7637 11.2463 4.47827 18.9998 4.47827C26.7532 4.47827 33.0386 10.7637 33.0386 18.5171C33.0386 26.2705 26.7532 32.5559 18.9998 32.5559C11.2463 32.5559 4.96094 26.2705 4.96094 18.5171Z" fill="#D0D5DD"/>
<path fill-rule="evenodd" clip-rule="evenodd" d="M19 14.595C16.8338 14.595 15.0777 16.3511 15.0777 18.5173C15.0777 20.6836 16.8338 22.4397 19 22.4397C21.1662 22.4397 22.9223 20.6836 22.9223 18.5173C22.9223 16.3511 21.1662 14.595 19 14.595ZM15 18.5173C15 16.3082 16.7909 14.5173 19 14.5173C21.2091 14.5173 23 16.3082 23 18.5173C23 20.7265 21.2091 22.5173 19 22.5173C16.7909 22.5173 15 20.7265 15 18.5173Z" fill="#D0D5DD"/>
<path fill-rule="evenodd" clip-rule="evenodd" d="M19 15.8372C17.52 15.8372 16.3203 17.0369 16.3203 18.5168C16.3203 19.9967 17.52 21.1964 19 21.1964C20.4799 21.1964 21.6796 19.9967 21.6796 18.5168C21.6796 17.0369 20.4799 15.8372 19 15.8372ZM16.2427 18.5168C16.2427 16.994 17.4772 15.7595 19 15.7595C20.5228 15.7595 21.7572 16.994 21.7572 18.5168C21.7572 20.0396 20.5228 21.2741 19 21.2741C17.4772 21.2741 16.2427 20.0396 16.2427 18.5168Z" fill="#D0D5DD"/>
<path d="M18.9609 2.51709H19.0386V34.5171H18.9609V2.51709Z" fill="#D0D5DD"/>
<path d="M35 18.478L35 18.5557L3 18.5557L3 18.478L35 18.478Z" fill="#D0D5DD"/>
<path d="M29.6021 2.51709H29.6797V34.5171H29.6021V2.51709Z" fill="#D0D5DD"/>
<path d="M13.6406 2.51709H13.7183V34.5171H13.6406V2.51709Z" fill="#D0D5DD"/>
<path d="M24.2817 2.51709H24.3594V34.5171H24.2817V2.51709Z" fill="#D0D5DD"/>
<path d="M8.32031 2.51709H8.39798V34.5171H8.32031V2.51709Z" fill="#D0D5DD"/>
<path d="M35 29.1187L35 29.1963L3 29.1963L3 29.1187L35 29.1187Z" fill="#D0D5DD"/>
<path d="M35 13.1577L35 13.2354L3 13.2354L3 13.1577L35 13.1577Z" fill="#D0D5DD"/>
<path d="M35 23.7983L35 23.876L3 23.876L3 23.7983L35 23.7983Z" fill="#D0D5DD"/>
<path d="M35 7.8374L35 7.91507L3 7.91507L3 7.8374L35 7.8374Z" fill="#D0D5DD"/>
<g filter="url(#filter1_dd_147_915)">
<circle cx="19" cy="18.5171" r="8" fill="#00D8D8"/>
</g>
<g filter="url(#filter2_b_147_915)">
<path d="M3 18.5171H35V21.7171C35 26.1975 35 28.4377 34.1281 30.149C33.3611 31.6543 32.1372 32.8782 30.6319 33.6451C28.9206 34.5171 26.6804 34.5171 22.2 34.5171H15.8C11.3196 34.5171 9.07937 34.5171 7.36808 33.6451C5.86278 32.8782 4.63893 31.6543 3.87195 30.149C3 28.4377 3 26.1975 3 21.7171V18.5171Z" fill="white" fill-opacity="0.2"/>
</g>
</g>
<rect x="3.1" y="2.61709" width="31.8" height="31.8" rx="7.9" stroke="#D0D5DD" stroke-width="0.2"/>
</g>
<defs>
<filter id="filter0_dd_147_915" x="0" y="0.51709" width="38" height="38" filterUnits="userSpaceOnUse" color-interpolation-filters="sRGB">
<feFlood flood-opacity="0" result="BackgroundImageFix"/>
<feColorMatrix in="SourceAlpha" type="matrix" values="0 0 0 0 0 0 0 0 0 0 0 0 0 0 0 0 0 0 127 0" result="hardAlpha"/>
<feOffset dy="1"/>
<feGaussianBlur stdDeviation="1"/>
<feColorMatrix type="matrix" values="0 0 0 0 0.0627451 0 0 0 0 0.0941176 0 0 0 0 0.156863 0 0 0 0.06 0"/>
<feBlend mode="normal" in2="BackgroundImageFix" result="effect1_dropShadow_147_915"/>
<feColorMatrix in="SourceAlpha" type="matrix" values="0 0 0 0 0 0 0 0 0 0 0 0 0 0 0 0 0 0 127 0" result="hardAlpha"/>
<feOffset dy="1"/>
<feGaussianBlur stdDeviation="1.5"/>
<feColorMatrix type="matrix" values="0 0 0 0 0.0627451 0 0 0 0 0.0941176 0 0 0 0 0.156863 0 0 0 0.1 0"/>
<feBlend mode="normal" in2="effect1_dropShadow_147_915" result="effect2_dropShadow_147_915"/>
<feBlend mode="normal" in="SourceGraphic" in2="effect2_dropShadow_147_915" result="shape"/>
</filter>
<filter id="filter1_dd_147_915" x="8" y="8.51709" width="22" height="22" filterUnits="userSpaceOnUse" color-interpolation-filters="sRGB">
<feFlood flood-opacity="0" result="BackgroundImageFix"/>
<feColorMatrix in="SourceAlpha" type="matrix" values="0 0 0 0 0 0 0 0 0 0 0 0 0 0 0 0 0 0 127 0" result="hardAlpha"/>
<feOffset dy="1"/>
<feGaussianBlur stdDeviation="1"/>
<feColorMatrix type="matrix" values="0 0 0 0 0.0627451 0 0 0 0 0.0941176 0 0 0 0 0.156863 0 0 0 0.06 0"/>
<feBlend mode="normal" in2="BackgroundImageFix" result="effect1_dropShadow_147_915"/>
<feColorMatrix in="SourceAlpha" type="matrix" values="0 0 0 0 0 0 0 0 0 0 0 0 0 0 0 0 0 0 127 0" result="hardAlpha"/>
<feOffset dy="1"/>
<feGaussianBlur stdDeviation="1.5"/>
<feColorMatrix type="matrix" values="0 0 0 0 0.0627451 0 0 0 0 0.0941176 0 0 0 0 0.156863 0 0 0 0.1 0"/>
<feBlend mode="normal" in2="effect1_dropShadow_147_915" result="effect2_dropShadow_147_915"/>
<feBlend mode="normal" in="SourceGraphic" in2="effect2_dropShadow_147_915" result="shape"/>
</filter>
<filter id="filter2_b_147_915" x="-2" y="13.5171" width="42" height="26" filterUnits="userSpaceOnUse" color-interpolation-filters="sRGB">
<feFlood flood-opacity="0" result="BackgroundImageFix"/>
<feGaussianBlur in="BackgroundImageFix" stdDeviation="2.5"/>
<feComposite in2="SourceAlpha" operator="in" result="effect1_backgroundBlur_147_915"/>
<feBlend mode="normal" in="SourceGraphic" in2="effect1_backgroundBlur_147_915" result="shape"/>
</filter>
<linearGradient id="paint0_linear_147_915" x1="19" y1="2.51709" x2="19" y2="34.5171" gradientUnits="userSpaceOnUse">
<stop stop-color="white"/>
<stop offset="1" stop-color="#D0D5DD"/>
</linearGradient>
<clipPath id="clip0_147_915">
<rect x="3" y="2.51709" width="32" height="32" rx="8" fill="white"/>
</clipPath>
</defs>
</svg>
