<svg width="18" height="17" viewBox="0 0 18 17" fill="none" xmlns="http://www.w3.org/2000/svg">
<g clip-path="url(#clip0_90_1513)">
<path d="M14.7365 1.74805H16.5873C16.751 1.74805 16.9079 1.81304 17.0236 1.92874C17.1393 2.04444 17.2043 2.20136 17.2043 2.36498V12.2359C17.2043 12.3995 17.1393 12.5564 17.0236 12.6721C16.9079 12.7878 16.751 12.8528 16.5873 12.8528H1.78099C1.61737 12.8528 1.46045 12.7878 1.34476 12.6721C1.22906 12.5564 1.16406 12.3995 1.16406 12.2359V2.36498C1.16406 2.20136 1.22906 2.04444 1.34476 1.92874C1.46045 1.81304 1.61737 1.74805 1.78099 1.74805H3.63179M7.9503 12.8528L6.71644 15.9375M10.418 12.8528L11.6519 15.9375M5.48258 15.9375H12.8857" stroke="#CD4949" stroke-width="1.4395" stroke-linecap="round" stroke-linejoin="round"/>
<path d="M9.18401 9.15121C11.2283 9.15121 12.8856 7.49396 12.8856 5.44963C12.8856 3.4053 11.2283 1.74805 9.18401 1.74805C7.13968 1.74805 5.48242 3.4053 5.48242 5.44963C5.48242 7.49396 7.13968 9.15121 9.18401 9.15121Z" stroke="#CD4949" stroke-width="1.4395" stroke-linecap="round" stroke-linejoin="round"/>
<path d="M6.56836 8.06556L11.7999 2.83398" stroke="#CD4949" stroke-width="1.4395" stroke-linecap="round" stroke-linejoin="round"/>
</g>
<defs>
<clipPath id="clip0_90_1513">
<rect width="17.2741" height="15.8346" fill="white" transform="translate(0.547852 0.719727)"/>
</clipPath>
</defs>
</svg>
